<?xml version="1.0" encoding="UTF-8"?>
<svg id="Layer_1" xmlns="http://www.w3.org/2000/svg" xmlns:xlink="http://www.w3.org/1999/xlink" version="1.1" viewBox="0 0 216 216">
  <!-- Generator: Adobe Illustrator 29.0.1, SVG Export Plug-In . SVG Version: 2.1.0 Build 192)  -->
  <defs>
    <style>
      .st0 {
        fill: none;
      }

      .st1 {
        fill: #c55d6c;
      }

      .st2 {
        fill: #fff;
      }

      .st3 {
        fill: #cf666c;
      }

      .st4 {
        clip-path: url(#clippath);
      }
    </style>
    <clipPath id="clippath">
      <rect class="st0" x="48" y="48" width="120" height="120"/>
    </clipPath>
  </defs>
  <circle class="st1" cx="108" cy="108" r="108"/>
  <path class="st3" d="M108,0C72.8,0,41.5,16.9,21.7,43c19.7,26.1,51,43,86.3,43s66.5-16.9,86.3-43C174.5,16.9,143.2,0,108,0Z"/>
  <g class="st4">
    <path class="st2" d="M108,158c-9.8,0-18-3.4-24.8-10.2s-10.2-15.1-10.2-24.8,1.2-10.1,3.5-14.4c2.3-4.4,6.1-9.3,11.4-14.8,5.6-5.8,8.9-11.4,9.8-16.6,1-5.2,1.4-11.6,1.2-19.2,13.6,8.4,24.3,18.5,32.2,30.2,7.9,11.7,11.9,23.3,11.9,34.8s-3.4,18-10.2,24.8-15.1,10.2-24.8,10.2ZM108,150.5c2.1,0,4.1-.8,6-2.4s2.9-4.1,2.9-7.5-.6-5-1.9-8.6c-1.3-3.5-3.6-7.4-6.9-11.7-3.2,4.1-5.4,7.9-6.7,11.6-1.3,3.6-1.9,6.5-1.9,8.7,0,3.3,1,5.8,2.9,7.4,1.8,1.6,3.8,2.4,5.8,2.4h-.2ZM92.4,146c-.9-4.8-.3-10.3,1.8-16.3,2.1-6,5.8-11.8,11.1-17.3.4-.4.9-.7,1.4-.9.5-.2,1-.3,1.4-.3s1,0,1.4.3c.5.2.9.5,1.3.9,2.2,2.2,4.2,4.7,6.1,7.4,1.9,2.7,3.4,5.4,4.7,8.3,1.2,2.9,2.1,5.8,2.6,8.9.5,3,.4,6.1-.2,9.1,3.1-2.2,5.8-5.3,8.1-9.5s3.5-8.7,3.5-13.5-1-10.2-2.9-15.2-4.3-9.6-7.2-14c-2.9-4.4-6-8.4-9.5-12.1s-6.7-6.9-9.8-9.4c-.4,5.5-1.7,10.3-3.9,14.4-2.2,4.1-5.3,8.4-9.5,12.9-4.2,4.6-7.4,8.5-9.3,11.9s-2.9,7.2-2.9,11.5,1.1,9.1,3.3,13.1c2.2,4,5.1,7.3,8.6,9.9h-.1Z"/>
  </g>
</svg>