<?xml version="1.0" encoding="UTF-8"?>
<svg xmlns="http://www.w3.org/2000/svg" version="1.1" viewBox="0 0 216 216">
  <defs>
    <style>
      .cls-1 {
        fill: #0d0d0d;
      }

      .cls-2 {
        fill: #fff;
      }
    </style>
  </defs>
  <!-- Generator: Adobe Illustrator 28.7.1, SVG Export Plug-In . SVG Version: 1.2.0 Build 142)  -->
  <g>
    <g id="Layer_1">
      <circle class="cls-1" cx="108" cy="108" r="108"/>
      <path class="cls-2" d="M76,147.9c-4.1,0-7.6-1.4-10.4-4.3-2.9-2.9-4.3-6.4-4.3-10.4h-8.2v-57.6c0-2,.8-3.8,2.2-5.2s3.2-2.2,5.2-2.2h72.4v20.9h13.1l17,22.6v21.6h-8.9c0,4.1-1.4,7.6-4.3,10.4-2.9,2.9-6.4,4.3-10.4,4.3s-7.6-1.4-10.4-4.3c-2.9-2.9-4.3-6.4-4.3-10.4h-33.9c0,4.1-1.4,7.6-4.3,10.4-2.9,2.9-6.4,4.3-10.4,4.3ZM76,140.4c2,0,3.7-.7,5.1-2.1s2.1-3.1,2.1-5.1-.7-3.7-2.1-5.1-3.1-2.1-5.1-2.1-3.7.7-5.1,2.1-2.1,3.1-2.1,5.1.7,3.7,2.1,5.1,3.1,2.1,5.1,2.1ZM60.5,125.6h2.8c1.4-2.2,3.2-4,5.4-5.4s4.6-2,7.2-2,5.1.7,7.3,2.1c2.2,1.4,4,3.1,5.4,5.3h36.8v-50.1H60.5v50.1ZM139.4,140.4c2,0,3.7-.7,5.1-2.1s2.1-3.1,2.1-5.1-.7-3.7-2.1-5.1-3.1-2.1-5.1-2.1-3.7.7-5.1,2.1-2.1,3.1-2.1,5.1.7,3.7,2.1,5.1,3.1,2.1,5.1,2.1ZM132.9,114.9h23.2l-13.9-18.5h-9.4v18.5Z"/>
    </g>
  </g>
</svg>