<?xml version="1.0" encoding="UTF-8"?>
<svg xmlns="http://www.w3.org/2000/svg" xmlns:xlink="http://www.w3.org/1999/xlink" version="1.1" viewBox="0 0 216 216">
  <defs>
    <style>
      .cls-1 {
        fill: none;
      }

      .cls-2 {
        fill: #c55d6c;
      }

      .cls-3 {
        fill: #efe5de;
      }

      .cls-4 {
        clip-path: url(#clippath);
      }
    </style>
    <clipPath id="clippath">
      <rect class="cls-1" x="48" y="48" width="120" height="120"/>
    </clipPath>
  </defs>
  <!-- Generator: Adobe Illustrator 28.7.1, SVG Export Plug-In . SVG Version: 1.2.0 Build 142)  -->
  <g>
    <g id="Layer_1">
      <circle class="cls-2" cx="108" cy="108" r="108"/>
      <g class="cls-4">
        <path class="cls-3" d="M108,158c-9.8,0-18-3.4-24.8-10.2-6.8-6.8-10.2-15.1-10.2-24.8s1.2-10.1,3.5-14.4c2.3-4.4,6.1-9.3,11.4-14.8,5.6-5.8,8.9-11.4,9.8-16.6,1-5.2,1.4-11.6,1.2-19.2,13.6,8.4,24.3,18.5,32.2,30.2,7.9,11.7,11.9,23.3,11.9,34.8s-3.4,18-10.2,24.8c-6.8,6.8-15.1,10.2-24.8,10.2ZM108,150.5c2.1,0,4.1-.8,6-2.4s2.9-4.1,2.9-7.5-.6-5-1.9-8.6c-1.3-3.5-3.6-7.4-6.9-11.7-3.2,4.1-5.4,7.9-6.7,11.6-1.3,3.6-1.9,6.5-1.9,8.7,0,3.3,1,5.8,2.9,7.4,1.8,1.6,3.8,2.4,5.8,2.4ZM92.4,146c-.9-4.8-.3-10.3,1.8-16.3,2.1-6,5.8-11.8,11.1-17.3.4-.4.9-.7,1.4-.9.5-.2,1-.3,1.4-.3s1,.1,1.4.3c.5.2.9.5,1.3.9,2.2,2.2,4.2,4.7,6.1,7.4,1.9,2.7,3.4,5.4,4.7,8.3,1.2,2.9,2.1,5.8,2.6,8.9.5,3,.4,6.1-.2,9.1,3.1-2.2,5.8-5.3,8.1-9.5s3.5-8.7,3.5-13.5-1-10.2-2.9-15.2c-1.9-5-4.3-9.6-7.2-14-2.9-4.4-6-8.4-9.5-12.1-3.5-3.7-6.7-6.9-9.8-9.4-.4,5.5-1.7,10.3-3.9,14.4-2.2,4.1-5.3,8.4-9.5,12.9-4.2,4.6-7.4,8.5-9.3,11.9s-2.9,7.2-2.9,11.5,1.1,9.1,3.3,13.1c2.2,4,5.1,7.3,8.6,9.9Z"/>
      </g>
    </g>
  </g>
</svg>