<svg width="238" height="250" viewBox="0 0 238 250" fill="none" xmlns="http://www.w3.org/2000/svg">
<mask id="mask0_328_176" style="mask-type:alpha" maskUnits="userSpaceOnUse" x="22" y="34" width="216" height="216">
<circle cx="130" cy="142" r="108" fill="#2F7458"/>
</mask>
<g mask="url(#mask0_328_176)">
<circle cx="130" cy="142" r="108" fill="#EBA46C"/>
<path d="M165.326 47C165.326 106.647 116.972 155 57.3255 155C-2.32125 155 -61.6743 132.098 -50.6745 47C-39.6747 -38.0977 -2.32125 -61 57.3255 -61C116.972 -61 165.326 -12.6468 165.326 47Z" fill="#E4B66D"/>
</g>
<path d="M154.357 143.524C146.151 136.19 138.992 129.206 132.881 122.571C126.77 115.937 123.714 109.738 123.714 103.976C123.714 99.4365 125.242 95.6389 128.298 92.5833C131.353 89.5278 135.151 88 139.69 88C142.31 88 144.907 88.7202 147.482 90.1607C150.058 91.6012 152.349 93.5437 154.357 95.9881C156.365 93.5437 158.657 91.6012 161.232 90.1607C163.808 88.7202 166.405 88 169.024 88C173.563 88 177.361 89.5278 180.417 92.5833C183.472 95.6389 185 99.4365 185 103.976C185 109.738 181.944 115.937 175.833 122.571C169.722 129.206 162.563 136.19 154.357 143.524ZM154.357 132.655C160.119 127.417 165.357 122.222 170.071 117.071C174.786 111.921 177.143 107.556 177.143 103.976C177.143 101.619 176.379 99.6766 174.851 98.1488C173.323 96.621 171.381 95.8571 169.024 95.8571C167.54 95.8571 166.077 96.2064 164.637 96.9048C163.196 97.6032 161.734 98.9127 160.25 100.833L154.357 108.036L148.464 100.833C146.98 98.9127 145.518 97.6032 144.077 96.9048C142.637 96.2064 141.175 95.8571 139.69 95.8571C137.333 95.8571 135.391 96.621 133.863 98.1488C132.335 99.6766 131.571 101.619 131.571 103.976C131.571 107.556 133.929 111.921 138.643 117.071C143.357 122.222 148.595 127.417 154.357 132.655ZM143.881 195.381L103.155 183.726V191.19H75V139.595H115.464L148.857 152.167C151.214 153.04 153.2 154.458 154.815 156.423C156.431 158.387 157.238 161.202 157.238 164.869H172.167C175.833 164.869 178.889 166.179 181.333 168.798C183.778 171.417 185 174.952 185 179.405V182.81L143.881 195.381ZM82.8571 183.333H95.1667V147.452H82.8571V183.333ZM143.357 187.262L176.881 177.048C176.357 175.389 175.702 174.254 174.917 173.643C174.131 173.032 173.214 172.726 172.167 172.726H145.06C142.44 172.726 140.018 172.552 137.792 172.202C135.565 171.853 133.448 171.373 131.44 170.762L120.833 167.488L123.714 159.893L133.274 163.036C135.456 163.734 137.53 164.214 139.494 164.476C141.458 164.738 144.579 164.869 148.857 164.869C148.857 163.821 148.661 162.796 148.268 161.792C147.875 160.788 147.198 160.067 146.238 159.631L114.155 147.452H103.155V175.476L143.357 187.262Z" fill="#EFE5DE"/>
</svg>
