<svg width="238" height="250" viewBox="0 0 238 250" fill="none" xmlns="http://www.w3.org/2000/svg">
<mask id="mask0_2_132" style="mask-type:alpha" maskUnits="userSpaceOnUse" x="0" y="34" width="216" height="216">
<circle cx="108" cy="142" r="108" fill="#2F7458"/>
</mask>
<g mask="url(#mask0_2_132)">
<circle cx="108" cy="142" r="108" fill="#2F7458"/>
<path d="M305.5 74.4032C305.5 134.05 257.147 182.403 197.5 182.403C137.853 182.403 78.5002 159.501 89.5 74.4032C100.5 -10.6945 137.853 -33.5968 197.5 -33.5968C257.147 -33.5968 305.5 14.7564 305.5 74.4032Z" fill="#CCD6D0" fill-opacity="0.5"/>
</g>
<path d="M76 181.875C71.9167 181.875 68.4375 180.437 65.5625 177.562C62.6875 174.688 61.25 171.208 61.25 167.125H53V109.5C53 107.5 53.75 105.75 55.25 104.25C56.75 102.75 58.5 102 60.5 102H132.875V122.875H146L163 145.5V167.125H154.125C154.125 171.208 152.687 174.688 149.812 177.562C146.938 180.437 143.458 181.875 139.375 181.875C135.292 181.875 131.812 180.437 128.938 177.562C126.062 174.688 124.625 171.208 124.625 167.125H90.75C90.75 171.208 89.3125 174.688 86.4375 177.562C83.5625 180.437 80.0833 181.875 76 181.875ZM76 174.375C78 174.375 79.7083 173.667 81.125 172.25C82.5417 170.833 83.25 169.125 83.25 167.125C83.25 165.125 82.5417 163.417 81.125 162C79.7083 160.583 78 159.875 76 159.875C74 159.875 72.2917 160.583 70.875 162C69.4583 163.417 68.75 165.125 68.75 167.125C68.75 169.125 69.4583 170.833 70.875 172.25C72.2917 173.667 74 174.375 76 174.375ZM60.5 159.625H63.25C64.6667 157.375 66.4583 155.583 68.625 154.25C70.7917 152.917 73.2083 152.25 75.875 152.25C78.5417 152.25 80.9792 152.937 83.1875 154.312C85.3958 155.688 87.2083 157.458 88.625 159.625H125.375V109.5H60.5V159.625ZM139.375 174.375C141.375 174.375 143.083 173.667 144.5 172.25C145.917 170.833 146.625 169.125 146.625 167.125C146.625 165.125 145.917 163.417 144.5 162C143.083 160.583 141.375 159.875 139.375 159.875C137.375 159.875 135.667 160.583 134.25 162C132.833 163.417 132.125 165.125 132.125 167.125C132.125 169.125 132.833 170.833 134.25 172.25C135.667 173.667 137.375 174.375 139.375 174.375ZM132.875 148.875H156.125L142.25 130.375H132.875V148.875Z" fill="#EFE5DE"/>
</svg>
