<svg width="217" height="250" viewBox="0 0 217 250" fill="none" xmlns="http://www.w3.org/2000/svg">
<mask id="mask0_2_123" style="mask-type:alpha" maskUnits="userSpaceOnUse" x="1" y="34" width="216" height="216">
<circle cx="109" cy="142" r="108" fill="#C55D6C"/>
</mask>
<g mask="url(#mask0_2_123)">
<circle cx="109" cy="142" r="108" fill="#C55D6C"/>
<path opacity="0.2" d="M216.5 41.5879C216.5 101.235 168.147 149.588 108.5 149.588C48.8532 149.588 0.5 101.235 0.5 41.5879C0.5 -18.0589 48.8532 -66.4121 108.5 -66.4121C168.147 -66.4121 216.5 -18.0588 216.5 41.5879Z" fill="#F68A6B"/>
</g>
<g clip-path="url(#clip0_2_123)">
<path d="M109 192C99.25 192 90.9792 188.604 84.1875 181.812C77.3958 175.021 74 166.75 74 157C74 151.75 75.1667 146.938 77.5 142.562C79.8333 138.188 83.625 133.25 88.875 127.75C94.4583 121.917 97.7292 116.396 98.6875 111.188C99.6458 105.979 100.042 99.5833 99.875 92C113.458 100.417 124.208 110.479 132.125 122.188C140.042 133.896 144 145.5 144 157C144 166.75 140.604 175.021 133.812 181.812C127.021 188.604 118.75 192 109 192ZM109 184.5C111.083 184.5 113.083 183.708 115 182.125C116.917 180.542 117.875 178.042 117.875 174.625C117.875 172.458 117.229 169.604 115.938 166.062C114.646 162.521 112.333 158.625 109 154.375C105.833 158.458 103.604 162.312 102.313 165.938C101.021 169.562 100.375 172.458 100.375 174.625C100.458 177.958 101.417 180.438 103.25 182.062C105.083 183.688 107 184.5 109 184.5ZM93.375 180C92.4583 175.167 93.0625 169.729 95.1875 163.688C97.3125 157.646 101 151.875 106.25 146.375C106.667 145.958 107.125 145.646 107.625 145.438C108.125 145.229 108.583 145.125 109 145.125C109.5 145.125 109.979 145.229 110.438 145.438C110.896 145.646 111.333 145.958 111.75 146.375C113.917 148.625 115.938 151.083 117.812 153.75C119.688 156.417 121.25 159.188 122.5 162.062C123.75 164.938 124.625 167.896 125.125 170.938C125.625 173.979 125.542 177 124.875 180C127.958 177.833 130.667 174.667 133 170.5C135.333 166.333 136.5 161.833 136.5 157C136.5 151.833 135.542 146.771 133.625 141.812C131.708 136.854 129.312 132.188 126.438 127.812C123.562 123.438 120.396 119.396 116.938 115.688C113.479 111.979 110.208 108.833 107.125 106.25C106.708 111.75 105.417 116.563 103.25 120.688C101.083 124.812 97.9167 129.125 93.75 133.625C89.5 138.208 86.3958 142.167 84.4375 145.5C82.4792 148.833 81.5 152.667 81.5 157C81.5 161.75 82.6042 166.104 84.8125 170.062C87.0208 174.021 89.875 177.333 93.375 180Z" fill="#EFE5DE"/>
</g>
<defs>
<clipPath id="clip0_2_123">
<rect width="120" height="120" fill="white" transform="translate(49 82)"/>
</clipPath>
</defs>
</svg>
