<svg width="140" height="130" viewBox="0 0 140 130" fill="none" xmlns="http://www.w3.org/2000/svg">
<path fill-rule="evenodd" clip-rule="evenodd" d="M23.9338 55.6511C21.9267 57.0375 20.4471 61.0977 18.3225 68.355C16.312 75.2253 14.3223 82.7488 11.8603 88.2219C12.221 88.7155 12.7201 89.0189 13.408 89C17.5376 88.9362 24.2283 78.0785 25.7269 65.4502C26.2621 61.1413 25.6557 57.5348 23.9338 55.6511ZM29.451 68.6755C27.9454 82.3135 19.815 96.1783 12.0827 96.2729C10.7868 96.2982 9.09562 95.7332 8.16934 94.2811C6.96671 95.5125 5.64538 96.2244 4.22836 96.1551C2.08259 96.0507 0.479395 94.3477 0 91.9335C1.46119 89.1062 2.92237 86.2485 4.38356 83.3623C4.43754 83.3648 4.49153 83.3672 4.54551 83.3697C4.74272 84.815 5.54908 85.351 6.43978 85.3767C10.1234 85.4649 11.7196 76.5028 14.7523 68.1627C17.1456 61.58 19.8748 56.1581 22.4941 54.6664C21.7988 54.3556 21.0461 54.2332 20.1959 54.2988C15.4185 54.6856 10.7632 59.7723 10.0219 65.8831C9.64249 68.8169 10.3387 70.5696 11.4668 70.6191C11.473 70.7021 11.4791 70.7851 11.4852 70.8681C9.89123 74.2811 8.29724 77.6636 6.70324 81.0131C4.63844 80.9612 2.55738 77.3285 3.35331 70.6331C4.81327 58.7961 13.3767 52.3477 19.9352 51.7582C27.3439 51.1566 30.5512 58.7476 29.451 68.6755Z" fill="white"/>
<path fill-rule="evenodd" clip-rule="evenodd" d="M33.9714 83.8141C34.5385 83.7247 35.0866 83.3865 35.6568 82.7927C33.9975 79.3773 36.9919 71.1013 40.0284 70.5372C40.0419 70.5348 40.0554 70.5324 40.0686 70.5299C40.0716 68.6554 39.5395 67.4457 38.2034 67.6828C33.9119 68.4426 29.5992 84.468 33.9714 83.8141ZM43.5755 77.8504C42.0993 81.5763 40.7495 83.8352 38.7251 84.1993C38.4822 84.2427 38.2393 84.286 38.0424 84.2582C36.3085 87.2491 34.1652 89.4164 31.9385 89.7433C23.2342 90.8822 30.4184 66.4225 38.151 65.0696C43.2924 64.1319 42.8633 72.7424 40.0379 80.0891C41.911 79.6181 43.3673 76.5827 44.6153 72.2726C45.1818 72.1572 44.8515 74.5995 43.5755 77.8504Z" fill="white"/>
<path fill-rule="evenodd" clip-rule="evenodd" d="M57.2482 78.6715C55.6481 81.5861 54.0483 84.4942 52.4482 87.3929C50.4033 87.1651 49.2206 84.2958 49.6883 80.261C50.3855 74.4939 53.5005 68.3013 53.7848 65.9228C53.84 65.2857 53.6999 65.0684 53.3358 65.1508C51.8375 65.4918 48.9298 70.199 46.1231 79.2076C45.322 82.0375 44.5205 84.8645 43.7194 87.6877C42.4511 87.9399 41.1825 88.1832 39.9143 88.4167C41.3175 83.5586 42.721 78.688 44.1242 73.8074C44.7401 71.7485 45.4805 69.1633 46.3461 66.0485C46.262 65.7955 46.1777 65.5424 46.0936 65.2891C46.2967 64.935 46.4997 64.5806 46.7028 64.2259C47.9103 64.9765 50.5487 63.4054 51.6915 62.5861C51.7142 62.9347 51.7369 63.2833 51.7593 63.6322C51.7593 63.6322 50.7367 63.9853 49.7604 67.0076C49.3893 68.0879 48.9553 69.4304 48.5106 70.8996C50.2794 66.5244 52.5819 62.3947 55.2945 61.7677C56.9541 61.3834 57.4884 63.004 57.1875 65.573C56.8041 69.0977 55.2926 71.4472 54.9181 74.4051C54.5568 77.6734 56.3609 78.381 57.1706 78.1899C57.1964 78.3504 57.2225 78.511 57.2482 78.6715ZM72.5002 80.1535C71.7212 79.5327 70.9556 79.2213 70.2269 79.4005C69.4168 79.5995 68.5583 80.3724 68.4185 81.5308C68.2903 82.5614 68.7341 83.3889 69.6653 83.1603C70.5557 82.9414 71.5233 81.8294 72.5002 80.1535ZM101.041 36.1038C99.1617 38.9371 96.7788 44.3968 95.6756 47.493C95.1646 47.5745 94.6536 47.6578 94.1426 47.7424C95.67 42.4982 95.6483 39.0662 93.7049 39.4658C91.4785 39.9267 88.6776 45.2192 85.8107 54.9927C83.5698 62.5604 80.9714 71.5397 78.1165 78.91C82.6132 81.0067 87.2924 83.7946 90.961 80.8834C91.0077 80.9567 91.0546 81.0299 91.1012 81.1032C89.4784 84.866 87.8553 88.6404 86.2324 92.4234C82.2648 93.3287 78.9004 88.2091 75.9228 84.1248C73.4921 89.337 70.8691 93.105 68.1568 93.7707C64.9581 94.5568 63.0102 91.4063 63.5457 87.0305C64.0371 83.1651 66.5678 78.1777 70.5351 77.2015C71.5877 76.9432 72.7287 77.0375 73.9341 77.3043C76.2385 72.1819 78.3649 64.9866 79.6608 60.9927C84.9179 44.6227 89.74 37.033 94.2745 36.1014C97.5131 35.4478 96.9472 38.3025 100.354 35.2918C100.583 35.5623 100.812 35.8327 101.041 36.1038Z" fill="white"/>
<path fill-rule="evenodd" clip-rule="evenodd" d="M102.4 64.5861C100.582 69.4628 98.4783 75.3388 95.321 75.9753C93.3776 76.369 92.1621 73.8837 92.9001 69.4808C91.3266 73.4325 89.3695 77.2286 87.2645 77.7033C85.0783 78.1978 83.7079 74.7726 85.4113 68.8211C86.2033 66.08 87.3265 62.2628 89.1441 55.9289C89.2122 55.6016 88.9211 55.2915 88.8512 55.1819C89.0542 54.8248 89.2572 54.4676 89.46 54.1108C90.6678 54.841 93.3059 53.2802 94.4484 52.4875C94.4711 52.8367 94.4938 53.1859 94.5168 53.5351C94.5165 53.5351 93.5344 53.8608 92.5581 56.877C91.0104 61.4463 87.8602 71.2595 89.9654 70.7967C89.9789 70.794 89.9924 70.7909 90.0059 70.7879C90.0194 70.7848 90.0329 70.782 90.0464 70.779C92.3133 70.2787 95.4504 60.2106 95.4507 60.2137C95.4489 60.2347 95.447 60.2561 95.4452 60.2772C96.0304 58.2653 96.6153 56.2549 97.2005 54.2466C97.2683 53.9212 96.9775 53.6035 96.9079 53.4921C97.1107 53.1401 97.3137 52.7885 97.5164 52.4368C98.724 53.1969 101.363 51.7115 102.505 50.9554C102.528 51.3052 102.551 51.6554 102.573 52.0052C102.573 52.0049 101.591 52.3001 100.615 55.2878C99.0669 59.8117 95.8761 69.5507 98.4673 69.0504C100.329 68.6926 102.55 61.9362 102.55 61.9374C102.793 61.8956 103.384 61.9805 102.4 64.5861Z" fill="white"/>
<path fill-rule="evenodd" clip-rule="evenodd" d="M114.383 62.8538C111.609 69.8458 108.958 73.6389 105.963 74.1096C102.359 74.6844 100.579 71.348 101.156 66.0549C101.919 59.5507 105.9 50.3956 110.515 49.7796C111.082 49.6941 114.228 49.4389 113.633 54.4469C113.354 56.7268 112.17 59.7384 111.004 61.6407C110.023 60.957 108.723 60.268 109.587 58.1484C110.4 56.1612 112.1 52.2552 110.4 52.4795C108.457 52.7357 105.745 58.2173 105.249 62.547C104.848 65.801 105.667 67.8364 108.461 67.4249C110.283 67.1572 112.746 65.5287 114.533 60.2146C114.776 60.1877 115.561 59.9142 114.383 62.8538Z" fill="white"/>
<path fill-rule="evenodd" clip-rule="evenodd" d="M123.006 57.0723C123.331 55.9725 123.656 54.8736 123.98 53.7759C124.071 52.2735 123.517 51.236 122.667 51.2842C119.347 51.4631 115.111 66.4493 118.107 66.1648C119.808 66.0113 121.916 60.3132 123.006 57.0723ZM130.172 61.9338C128.434 66.4905 125.922 72.0815 122.763 72.2592C121.103 72.3532 119.923 69.7637 120.61 65.5907C119.117 69.3187 117.338 72.6532 115.314 72.8675C109.08 73.63 115.049 49.087 122.134 48.6306C123.672 48.5388 124.464 49.6331 124.886 50.801C125.072 50.2109 125.258 49.6209 125.445 49.0314C126.606 50.0433 129.088 48.9368 130.231 48.384C130.254 48.7378 130.277 49.0916 130.3 49.4454C130.3 49.4451 129.271 49.6303 128.254 52.456C126.787 56.7152 123.602 65.8953 126.193 65.8031C128.055 65.7399 130.322 59.3086 130.322 59.3114C130.646 59.3126 131.172 59.3144 130.172 61.9338Z" fill="white"/>
<path fill-rule="evenodd" clip-rule="evenodd" d="M135.567 60.562C135.781 58.1349 134.457 55.6432 134.613 52.9658C133.7 54.5537 132.675 56.5259 131.919 58.2012C133.29 58.2869 133.695 59.6795 133.482 61.17C133.316 61.3736 133.149 61.5772 132.982 61.7814C132.928 61.4676 132.789 61.2146 132.505 61.2088C131.898 61.196 131.249 62.1264 131.098 63.3742C130.954 64.5601 131.508 65.6227 132.479 65.6416C133.897 65.6682 135.298 63.6081 135.567 60.562ZM138.987 62.399C138.608 66.6877 135.829 72.2308 131.254 72.1798C128.299 72.1578 126.8 69.4765 127.352 65.0232C127.664 62.3935 129.023 59.8056 130.452 58.7497C132.375 54.3724 135.268 49.6749 135.601 49.1368C136.283 47.8571 137.24 47.1615 138.171 47.2277C139.264 47.3043 140.142 48.4472 139.981 49.8059C139.843 49.9811 139.705 50.1566 139.567 50.3324C138.974 49.6575 138.163 50.5354 137.958 52.3953C137.698 54.8721 139.388 57.8694 138.987 62.399Z" fill="white"/>
<path fill-rule="evenodd" clip-rule="evenodd" d="M40.9856 53.1838L41.2746 53.1435L41.1976 53.6337L40.8123 56.373L35.0311 57.1816L33.104 55.5333V45.9429L35.0311 43.7552L40.8123 42.9466L41.1976 45.5782L41.2746 46.0467L40.9856 46.087L40.0413 45.7396L36.7462 46.2006L36.1874 46.8349V53.7784L36.7462 54.2564L40.0413 53.7955L40.9856 53.1838Z" fill="white"/>
<path fill-rule="evenodd" clip-rule="evenodd" d="M49.9466 50.5879L48.9252 45.3791L48.8483 45.3898L47.8269 50.8843L49.9466 50.5879ZM54.2823 54.2012V54.489L50.3321 55.0415V54.7537L50.698 54.3379L50.4284 53.014L47.345 53.4454L47.0751 54.8446L47.4414 55.1581V55.4457L43.4909 55.9982V55.7106L43.9534 55.1856L46.5356 43.7189L46.1887 43.4414V43.1536L51.1026 42.4664L53.8198 53.8056L54.2823 54.2012Z" fill="white"/>
<path fill-rule="evenodd" clip-rule="evenodd" d="M65.0161 43.685L64.7268 43.7253L63.7828 43.3782L60.3525 43.8578V46.543L62.4339 46.2521L62.9154 45.7051L63.2046 45.6645V49.3089L62.9154 49.3495L62.4339 48.9374L60.3525 49.2283V52.8724L60.8343 53.2848V53.5723L56.7875 54.1386V53.8507L57.2694 53.3037V42.3709L56.7875 41.9588V41.6712L64.5536 40.5849L64.9391 43.2161L65.0161 43.685Z" fill="white"/>
<path fill-rule="evenodd" clip-rule="evenodd" d="M70.4695 38.5104L71.838 38.319L73.9574 35.1841L71.3755 35.5452L70.4695 38.5104ZM75.6535 48.3349L75.9425 48.2946L75.8652 48.7848L75.4799 51.5241L67.7136 52.6102V52.3223L68.1958 51.7753V40.8425L67.7136 40.4304V40.1429L75.4799 39.0568L75.8652 41.688L75.9425 42.1566L75.6535 42.1972L74.7092 41.8498L71.2792 42.3297V44.4393L73.3602 44.1481L73.8421 43.6013L74.131 43.5608V47.2051L73.8421 47.2457L73.3602 46.8336L71.2792 47.1249V49.4264L74.7092 48.9466L75.6535 48.3349Z" fill="white"/>
<path fill-rule="evenodd" clip-rule="evenodd" d="M13.8985 38.2393L14.0043 38.5046L16.0528 39.3736L16.4761 40.4341L15.6142 42.4475L14.5527 42.8782L10.8414 41.304L10.4185 40.2436L11.4076 37.9316L12.5109 38.2234L12.7093 38.2723L12.6612 38.3843L12.3195 38.6709L11.7416 40.0208L11.8643 40.3282L14.5511 41.468L14.8591 41.3431L15.1526 40.6569L15.0299 40.3495L14.2358 40.0125L14.0411 40.4673L12.9062 40.2503L13.7871 38.192L13.8985 38.2393Z" fill="white"/>
<path fill-rule="evenodd" clip-rule="evenodd" d="M16.9058 29.0748L16.9705 29.3526L20.472 31.5024L20.7308 32.6139L19.5757 34.4762L18.4615 34.7445L14.96 32.5949L14.6815 32.6618L14.5784 32.5986L15.4768 31.1499L15.5796 31.2131L15.6443 31.4912L18.6722 33.3501L18.9954 33.2723L19.389 32.6377L19.3138 32.315L16.2862 30.4564L16.0074 30.5232L15.9047 30.46L16.8027 29.0116L16.9058 29.0748Z" fill="white"/>
<path fill-rule="evenodd" clip-rule="evenodd" d="M24.1887 24.8535L22.1908 23.7369L22.1696 23.7613L23.6109 25.5348L24.1887 24.8535ZM26.7274 24.5992L26.8197 24.6767L25.7425 25.9466L25.6499 25.8691L25.6327 25.6529L25.1214 25.3718L24.2807 26.3633L24.6448 26.8175L24.8616 26.7982L24.954 26.8761L23.8768 28.1459L23.7842 28.0681L23.7624 27.7952L20.898 23.9661L20.6986 23.9896L20.606 23.9121L21.9463 22.3321L26.4535 24.6233L26.7274 24.5992Z" fill="white"/>
<path fill-rule="evenodd" clip-rule="evenodd" d="M30.0712 16.2015L29.9801 16.2824L29.5479 16.3977L28.9526 16.927L31.4799 19.7402L31.7664 19.7546L31.8471 19.8443L30.5711 20.9789L30.4908 20.8892L30.508 20.6047L27.9806 17.7915L27.3853 18.3211L27.2221 18.7353L27.131 18.8165L27.0209 18.6453L26.3897 17.6993L29.0382 15.3434L29.9123 16.0733L30.0712 16.2015Z" fill="white"/>
<path fill-rule="evenodd" clip-rule="evenodd" d="M38.5402 13.2412L38.642 13.1737L38.727 13.3587L39.2183 14.3837L36.4874 16.1969L36.4202 16.0968L36.4775 15.8175L33.9244 12.0101L33.6432 11.9557L33.576 11.8556L36.3073 10.0421L37.0698 10.8874L37.2087 11.0363L37.1069 11.1038L36.6631 11.1572L35.4568 11.9582L35.9494 12.6929L36.6815 12.207L36.7389 11.9274L36.8404 11.8599L37.6915 13.1291L37.59 13.1966L37.3084 13.1419L36.5766 13.6279L37.114 14.4295L38.3203 13.6285L38.5402 13.2412Z" fill="white"/>
<path fill-rule="evenodd" clip-rule="evenodd" d="M46.4451 5.16484L48.3578 9.3251L48.6271 9.42339L48.6774 9.53267L47.1214 10.2412L47.0711 10.1316L47.1723 9.86478L46.112 7.55831L45.8065 9.42736L45.3919 9.616L43.7709 8.62394L44.8315 10.9304L45.1005 11.0284L45.1508 11.138L43.5951 11.8462L43.5445 11.7366L43.6461 11.4698L41.7331 7.30953L41.4641 7.21154L41.4138 7.10196L42.6363 6.54549L44.8475 7.88676L45.2738 5.34494L46.496 4.78877L46.5463 4.89805L46.4451 5.16484Z" fill="white"/>
<path fill-rule="evenodd" clip-rule="evenodd" d="M55.3221 5.43376L54.32 3.38309L54.2884 3.39164L54.4565 5.66545L55.3221 5.43376ZM57.5534 6.66545L57.5847 6.78144L55.972 7.21307L55.9404 7.09677L56.0502 6.90965L55.791 6.38889L54.5323 6.72558L54.5709 7.30525L54.7605 7.4127L54.7917 7.529L53.179 7.96062L53.1478 7.84432L53.2861 7.60775L53.1263 2.83822L52.949 2.7442L52.9177 2.6279L54.9236 2.09097L57.3142 6.52992L57.5534 6.66545Z" fill="white"/>
<path fill-rule="evenodd" clip-rule="evenodd" d="M65.4464 4.22558L65.4378 4.42888L65.4087 5.56441L62.3096 5.9298L62.2952 5.81044L62.474 5.587L61.9324 1.04182L61.7063 0.86661L61.6922 0.746951L63.3914 0.546402L63.4058 0.66606L63.2273 0.889198L63.6736 4.63706L64.9523 4.48627L65.3249 4.23993L65.4464 4.22558Z" fill="white"/>
<path fill-rule="evenodd" clip-rule="evenodd" d="M72.9281 3.48138L72.5527 1.23169L72.5202 1.23077L72.0325 3.4591L72.9281 3.48138ZM74.7162 5.29335L74.7132 5.41362L73.0437 5.37149L73.0468 5.25122L73.2054 5.10257L73.1057 4.52992L71.8028 4.49726L71.6746 5.06411L71.8255 5.22039L71.8224 5.34097L70.153 5.29884L70.156 5.17858L70.3563 4.99085L71.5638 0.371493L71.4209 0.231383L71.424 0.111115L73.5004 0.163312L74.5255 5.09585L74.7162 5.29335Z" fill="white"/>
<path fill-rule="evenodd" clip-rule="evenodd" d="M84.2357 1.78205L83.422 6.28755L83.5867 6.52106L83.5656 6.6395L82.2424 6.40293L81.4063 3.4707L80.9766 5.84982L81.1413 6.08334L81.1198 6.20208L79.4764 5.90782L79.4979 5.78938L79.7341 5.6276L80.5478 1.1221L80.3831 0.888586L80.4042 0.770149L81.7271 1.00702L82.5644 3.93102L82.9929 1.55983L82.8282 1.32632L82.8497 1.20757L84.4931 1.50183L84.4719 1.62027L84.2357 1.78205Z" fill="white"/>
<path fill-rule="evenodd" clip-rule="evenodd" d="M96.6512 7.37363L97.3993 7.71429L97.7116 7.60012L97.9698 7.03785L97.8526 6.72833L97.1039 6.38767L96.6512 7.37363ZM97.1546 9.00702L97.0371 8.69719L96.2151 8.32296L95.6949 9.45513L96.5172 9.82937L96.8294 9.7152L97.1546 9.00702ZM98.3704 9.48077L97.783 10.7589L96.7064 11.152L93.8546 9.85348L93.9049 9.7442L94.1739 9.64591L96.2543 5.11783L96.1531 4.85073L96.2034 4.74146L98.9813 6.0058L99.3868 7.07357L98.7998 8.35165L98.0131 8.62058L98.3704 9.48077ZM104.702 12.4029L105.458 12.8965L105.784 12.8309L106.235 12.1465L106.166 11.8227L105.41 11.3291L104.702 12.4029ZM105.282 15.9991L105.216 16.0998L103.82 15.188L103.886 15.0873L104.088 14.9884L104.477 13.6004L104.082 13.3425L103.329 14.4835L103.389 14.7625L103.323 14.8633L101.893 13.9292L101.959 13.8285L102.24 13.7717L104.764 9.94628L104.704 9.66728L104.77 9.56655L107.392 11.279L107.63 12.395L106.568 14.0058L105.68 14.1847L105.243 15.7625L105.282 15.9991ZM112.296 19.3758L113.477 17.4219L113.453 17.3999L111.628 18.7805L112.296 19.3758ZM112.475 21.9081L112.395 21.9979L111.151 20.8883L111.232 20.7988L111.449 20.7879L111.747 20.2879L110.776 19.4219L110.309 19.7705L110.322 19.9869L110.241 20.0766L108.998 18.967L109.078 18.8773L109.354 18.8639L113.285 16.1291L113.267 15.9301L113.348 15.8404L114.895 17.2204L112.459 21.6349L112.475 21.9081Z" fill="white"/>
<path fill-rule="evenodd" clip-rule="evenodd" d="M122.005 25.3901L118.451 28.2918L118.425 28.576L118.331 28.6523L117.478 27.6178L118.752 24.8474L116.875 26.3797L116.848 26.6636L116.755 26.7402L115.696 25.4548L115.789 25.3785L116.075 25.4081L119.628 22.5061L119.655 22.2222L119.748 22.1459L120.6 23.1804L119.333 25.9457L121.203 24.4182L121.23 24.1343L121.324 24.058L122.383 25.3431L122.289 25.4197L122.005 25.3901Z" fill="white"/>
<path fill-rule="evenodd" clip-rule="evenodd" d="M122.952 33.471L123.413 34.2448L123.734 34.3284L125.9 33.051L125.981 32.7302L125.52 31.956L122.952 33.471ZM126.974 33.9249L123.989 35.6856L122.769 35.3687L121.213 32.754L121.317 32.6926L121.594 32.7647L125.55 30.431L125.62 30.1545L125.724 30.0931L127.281 32.7079L126.974 33.9249Z" fill="white"/>
<path fill-rule="evenodd" clip-rule="evenodd" d="M27.5454 108.778L27.5436 109.109L27.2439 109.401L26.9111 109.397L25.03 107.484L25.0319 107.153L25.3319 106.861L25.6643 106.866L27.5454 108.778Z" fill="white"/>
<path fill-rule="evenodd" clip-rule="evenodd" d="M36.1874 119.372L36.1214 119.473L34.6885 118.544L34.7544 118.443L35.0351 118.386L37.3692 114.821L36.994 114.578L37.3241 114.073L38.1464 114.079L39.0334 114.654L36.127 119.093L36.1874 119.372Z" fill="white"/>
<path fill-rule="evenodd" clip-rule="evenodd" d="M44.8435 119.135L44.3886 118.917L44.0742 119.024L42.8054 121.643L42.9164 121.955L43.3712 122.173L43.6859 122.065L44.9548 119.447L44.8435 119.135ZM46.3709 119.511L44.618 123.128L43.5338 123.499L41.7723 122.654L41.3893 121.578L43.1418 117.962L44.2261 117.59L45.9875 118.436L46.3709 119.511ZM52.9039 122.277L52.4221 122.126L52.1267 122.278L51.2489 125.05L51.4041 125.342L51.8856 125.494L52.1813 125.342L53.0588 122.57L52.9039 122.277ZM54.4691 122.432L53.2569 126.26L52.2374 126.782L50.3729 126.198L49.8386 125.188L51.0508 121.36L52.0703 120.838L53.9348 121.422L54.4691 122.432ZM63.4828 123.743L63.6346 123.44L63.7555 123.458L63.738 123.577L63.4828 123.743ZM63.5635 127.357L63.419 127.165L63.0967 127.118L62.9025 127.26L62.7823 128.07L62.935 128.263L63.2411 128.308L63.4432 128.167L63.5635 127.357ZM64.3293 127.08L64.0959 128.653L63.4779 129.098L62.4786 128.951L62.0167 128.347L62.2501 126.775L62.8678 126.33L63.8671 126.477L64.3293 127.08ZM60.6877 123.933L60.5433 123.741L60.2209 123.694L60.0267 123.835L59.9065 124.646L60.059 124.838L60.3654 124.883L60.5675 124.743L60.6877 123.933ZM60.9417 128.433L61.0134 128.614L60.996 128.733L59.8274 128.562L62.5191 123.577L62.4483 123.388L62.466 123.269L63.6346 123.44L60.9417 128.433ZM59.9792 128.259L59.8274 128.562L59.7065 128.544L59.724 128.425L59.9792 128.259ZM60.6021 125.673L59.6029 125.526L59.1407 124.923L59.3744 123.35L59.9921 122.905L60.9914 123.052L61.4533 123.655L61.2199 125.228L60.6021 125.673ZM77.841 124.595L77.0957 124.674L76.8859 124.931L77.1975 127.821L77.4576 128.027L78.2026 127.948L78.4127 127.691L78.1011 124.801L77.841 124.595ZM79.3378 124.112L79.7684 128.103L79.0443 128.988L76.8571 129.222L75.9609 128.511L75.5302 124.519L76.2541 123.634L78.4416 123.4L79.3378 124.112ZM86.2938 124.768L87.1685 124.54L87.3375 124.255L87.1286 123.463L86.8403 123.297L85.9656 123.526L86.2938 124.768ZM89.3686 126.745L89.3993 126.862L87.7835 127.284L87.7528 127.167L87.8138 126.952L87.0379 125.736L86.5809 125.855L86.929 127.175L87.1774 127.318L87.2084 127.434L85.553 127.866L85.5221 127.75L85.6681 127.505L84.4998 123.079L84.2514 122.936L84.2207 122.82L87.255 122.027L88.2478 122.598L88.7401 124.461L88.2794 125.237L89.1655 126.616L89.3686 126.745Z" fill="white"/>
<path fill-rule="evenodd" clip-rule="evenodd" d="M97.3585 120.589L97.2515 120.853L98.0686 122.741L97.6391 123.799L95.6185 124.664L94.5511 124.247L93.1148 120.929L93.5442 119.871L95.8639 118.878L96.4604 119.846L96.5702 120.017L96.458 120.066L96.0114 120.038L94.657 120.618L94.5324 120.925L95.5283 123.226L95.8378 123.346L96.5261 123.052L96.6509 122.745L96.373 122.103L95.9166 122.299L95.2452 121.363L97.3107 120.478L97.3585 120.589Z" fill="white"/>
<path fill-rule="evenodd" clip-rule="evenodd" d="M104.636 117.908L103.082 116.233L103.054 116.25L103.875 118.379L104.636 117.908ZM107.13 118.445L107.193 118.548L105.775 119.425L105.712 119.323L105.762 119.112L105.363 118.688L104.256 119.372L104.462 119.916L104.674 119.965L104.738 120.067L103.32 120.945L103.256 120.842L103.32 120.576L101.78 116.054L101.584 116.015L101.52 115.913L103.284 114.821L106.861 118.384L107.13 118.445Z" fill="white"/>
<path fill-rule="evenodd" clip-rule="evenodd" d="M111.435 109.02L114.423 112.498L114.709 112.519L114.787 112.61L113.766 113.48L110.956 112.268L112.534 114.105L112.82 114.125L112.898 114.217L111.63 115.297L111.551 115.205L111.575 114.921L108.587 111.444L108.301 111.422L108.222 111.331L109.244 110.462L112.048 111.667L110.475 109.837L110.189 109.816L110.111 109.724L111.38 108.644L111.459 108.736L111.435 109.02Z" fill="white"/>
<path fill-rule="evenodd" clip-rule="evenodd" d="M116.15 104.211L119.57 107.27L119.856 107.253L119.946 107.334L118.803 108.6L118.713 108.52L118.699 108.235L115.279 105.176L114.993 105.193L114.903 105.112L116.046 103.846L116.136 103.926L116.15 104.211Z" fill="white"/>
<path fill-rule="evenodd" clip-rule="evenodd" d="M124.332 99.4298L124.402 99.33L124.549 99.471L125.384 100.245L123.991 102.243L122.865 102.452L119.882 100.391L119.684 99.2674L121.076 97.2692L122.097 97.7769L122.281 97.8648L122.212 97.9646L121.819 98.1767L121.025 99.3156L121.082 99.6416L123.15 101.07L123.477 101.01L124.271 99.8709L124.332 99.4298Z" fill="white"/>
<path fill-rule="evenodd" clip-rule="evenodd" d="M129.171 85.873L129.475 85.739L129.866 85.891L129.997 86.1948L129.018 88.6862L128.715 88.8202L128.323 88.6682L128.192 88.3645L129.171 85.873Z" fill="white"/>
<path fill-rule="evenodd" clip-rule="evenodd" d="M52.8558 107.175H53.0091L52.9683 107.427L52.7638 108.838H48.6446V108.686L48.9001 108.434V102.188L48.6446 101.936V101.785H52.7638L52.9683 103.196L53.0091 103.447H52.8558L52.3549 103.196H50.5355V104.505H51.6394L51.8952 104.253H52.0482V106.168H51.8952L51.6394 105.916H50.5355V107.427H52.3549L52.8558 107.175Z" fill="white"/>
<path fill-rule="evenodd" clip-rule="evenodd" d="M56.1367 104.052L58.7021 105.654V107.83L57.6801 108.838H54.7362L54.5317 107.427L54.4909 107.175H54.6442L55.1451 107.427H56.7704L57.0667 107.135V106.45L54.5013 104.848V102.793L55.5233 101.785H58.5898L58.7941 103.196L58.8352 103.447H58.6818L58.181 103.196H56.433L56.1367 103.488V104.052Z" fill="white"/>
<path fill-rule="evenodd" clip-rule="evenodd" d="M65.1618 103.447H65.0084L64.5075 103.196H63.5058V108.434L63.7613 108.686V108.838H61.6149V108.686L61.8704 108.434V103.196H60.8687L60.3678 103.447H60.2145L60.2556 103.196L60.4598 101.785H64.9164L65.1207 103.196L65.1618 103.447Z" fill="white"/>
<path fill-rule="evenodd" clip-rule="evenodd" d="M67.4612 107.427L67.7578 107.719V108.545L67.4612 108.838H66.6334L66.3368 108.545V107.719L66.6334 107.427H67.4612Z" fill="white"/>
<path fill-rule="evenodd" clip-rule="evenodd" d="M76.0366 107.175L75.9958 107.427L75.7913 108.838H71.8255V106.258L74.3911 104.052V103.488L74.0948 103.196H72.3469L71.846 103.447H71.6927L71.7334 103.196L71.938 101.785H75.0045L76.0265 102.793V104.647L73.4609 106.853V107.427H75.3824L75.8836 107.175H76.0366Z" fill="white"/>
<path fill-rule="evenodd" clip-rule="evenodd" d="M80.2374 103.196H79.6037L79.3071 103.488V107.135L79.6037 107.427H80.2374L80.534 107.135V103.488L80.2374 103.196ZM82.1694 102.793V107.83L81.1471 108.838H78.694L77.6717 107.83V102.793L78.694 101.785H81.1471L82.1694 102.793Z" fill="white"/>
<path fill-rule="evenodd" clip-rule="evenodd" d="M85.9509 108.686V108.838H83.8045V108.686L84.06 108.434V103.095H83.4978V102.339L84.3667 101.785H85.6954V108.434L85.9509 108.686Z" fill="white"/>
<path fill-rule="evenodd" clip-rule="evenodd" d="M89.4263 104.203L89.7225 104.495H89.9882L90.2847 104.203V103.488L89.9882 103.196H89.7225L89.4263 103.488V104.203ZM90.489 106.218L90.1927 105.926H89.5183L89.2217 106.218V107.135L89.5183 107.427H90.1927L90.489 107.135V106.218ZM92.1244 105.724V107.83L91.1025 108.838H88.6086L87.5863 107.83V105.724L88.2098 105.11L87.7909 104.697V102.793L88.8128 101.785H90.8982L91.9202 102.793V104.697L91.5012 105.11L92.1244 105.724Z" fill="white"/>
</svg>
