<svg width="140" height="130" viewBox="0 0 140 130" fill="none" xmlns="http://www.w3.org/2000/svg">
<path fill-rule="evenodd" clip-rule="evenodd" d="M23.9338 55.5401C21.9267 56.9265 20.4471 60.9866 18.3225 68.244C16.312 75.1142 14.3223 82.6378 11.8603 88.1109C12.221 88.6045 12.7201 88.9079 13.408 88.889C17.5376 88.8252 24.2283 77.9674 25.7269 65.3392C26.2621 61.0303 25.6557 57.4238 23.9338 55.5401ZM29.451 68.5645C27.9454 82.2025 19.815 96.0673 12.0827 96.1619C10.7868 96.1872 9.09562 95.6222 8.16934 94.1701C6.96671 95.4015 5.64538 96.1133 4.22836 96.0441C2.08259 95.9397 0.479395 94.2367 0 91.8224C1.46119 88.9952 2.92237 86.1375 4.38356 83.2513C4.43754 83.2538 4.49153 83.2562 4.54551 83.2586C4.74272 84.704 5.54908 85.24 6.43978 85.2657C10.1234 85.3539 11.7196 76.3917 14.7523 68.0517C17.1456 61.4689 19.8748 56.0471 22.4941 54.5553C21.7988 54.2446 21.0461 54.1222 20.1959 54.1878C15.4185 54.5746 10.7632 59.6613 10.0219 65.7721C9.64249 68.7058 10.3387 70.4586 11.4668 70.508C11.473 70.591 11.4791 70.6741 11.4852 70.7571C9.89123 74.1701 8.29724 77.5526 6.70324 80.9021C4.63844 80.8502 2.55738 77.2174 3.35331 70.5221C4.81327 58.6851 13.3767 52.2366 19.9352 51.6472C27.3439 51.0456 30.5512 58.6365 29.451 68.5645Z" fill="#01172F"/>
<path fill-rule="evenodd" clip-rule="evenodd" d="M33.9714 83.7031C34.5385 83.6137 35.0866 83.2754 35.6568 82.6817C33.9974 79.2663 36.9919 70.9903 40.0284 70.4262C40.0419 70.4238 40.0554 70.4214 40.0685 70.4189C40.0716 68.5444 39.5395 67.3347 38.2034 67.5718C33.9119 68.3316 29.5992 84.357 33.9714 83.7031ZM43.5755 77.7394C42.0993 81.4653 40.7494 83.7242 38.7251 84.0883C38.4822 84.1317 38.2393 84.175 38.0424 84.1472C36.3085 87.1381 34.1652 89.3054 31.9385 89.6323C23.2342 90.7712 30.4184 66.3115 38.151 64.9586C43.2924 64.0209 42.8633 72.6314 40.0379 79.9781C41.911 79.5071 43.3673 76.4717 44.6153 72.1616C45.1818 72.0462 44.8514 74.4885 43.5755 77.7394Z" fill="#01172F"/>
<path fill-rule="evenodd" clip-rule="evenodd" d="M57.2482 78.5604C55.6481 81.4749 54.0483 84.383 52.4482 87.2817C50.4033 87.054 49.2206 84.1846 49.6883 80.1498C50.3855 74.3827 53.5005 68.1901 53.7848 65.8116C53.84 65.1746 53.6999 64.9572 53.3358 65.0396C51.8375 65.3806 48.9298 70.0879 46.1231 79.0964C45.322 81.9264 44.5205 84.7533 43.7194 87.5766C42.4511 87.8287 41.1825 88.072 39.9143 88.3055C41.3175 83.4474 42.721 78.5769 44.1242 73.6962C44.7401 71.6373 45.4805 69.0521 46.3461 65.9374C46.262 65.6843 46.1777 65.4313 46.0936 65.1779C46.2967 64.8238 46.4997 64.4694 46.7028 64.1147C47.9103 64.8653 50.5487 63.2942 51.6915 62.4749C51.7142 62.8235 51.7369 63.1721 51.7593 63.521C51.7593 63.521 50.7367 63.8742 49.7604 66.8965C49.3893 67.9767 48.9553 69.3192 48.5106 70.7884C50.2794 66.4133 52.5819 62.2835 55.2945 61.6565C56.9541 61.2722 57.4884 62.8928 57.1875 65.4618C56.8041 68.9865 55.2926 71.336 54.9181 74.2939C54.5568 77.5622 56.3609 78.2698 57.1706 78.0787C57.1964 78.2393 57.2225 78.3998 57.2482 78.5604ZM72.5002 80.0424C71.7212 79.4215 70.9556 79.1101 70.2269 79.2893C69.4168 79.4883 68.5583 80.2612 68.4185 81.4197C68.2903 82.4502 68.7341 83.2777 69.6653 83.0491C70.5557 82.8302 71.5233 81.7182 72.5002 80.0424ZM101.041 35.9926C99.1617 38.826 96.7788 44.2857 95.6756 47.3818C95.1646 47.4633 94.6536 47.5467 94.1426 47.6312C95.67 42.387 95.6483 38.9551 93.7049 39.3547C91.4785 39.8156 88.6776 45.108 85.8107 54.8815C83.5698 62.4493 80.9714 71.4285 78.1165 78.7988C82.6132 80.8955 87.2924 83.6834 90.961 80.7722C91.0077 80.8455 91.0546 80.9187 91.1012 80.992C89.4784 84.7548 87.8553 88.5292 86.2324 92.3122C82.2648 93.2176 78.9004 88.0979 75.9228 84.0137C73.4921 89.2258 70.8691 92.9938 68.1568 93.6596C64.9581 94.4456 63.0102 91.2951 63.5457 86.9194C64.0371 83.054 66.5678 78.0665 70.5351 77.0903C71.5877 76.8321 72.7287 76.9264 73.9341 77.1932C76.2385 72.0708 78.3649 64.8754 79.6608 60.8815C84.9179 44.5116 89.74 36.9218 94.2745 35.9902C97.5131 35.3366 96.9472 38.1913 100.354 35.1807C100.583 35.4511 100.812 35.7216 101.041 35.9926Z" fill="#01172F"/>
<path fill-rule="evenodd" clip-rule="evenodd" d="M102.4 64.4749C100.582 69.3516 98.4783 75.2276 95.321 75.8641C93.3776 76.2579 92.1621 73.7725 92.9001 69.3696C91.3266 73.3213 89.3695 77.1174 87.2645 77.5921C85.0783 78.0866 83.7079 74.6614 85.4113 68.7099C86.2033 65.9688 87.3265 62.1516 89.1441 55.8177C89.2122 55.4905 88.9211 55.1803 88.8512 55.0707C89.0542 54.7136 89.2572 54.3564 89.46 53.9996C90.6678 54.7298 93.3059 53.169 94.4484 52.3763C94.4711 52.7255 94.4938 53.0747 94.5168 53.4239C94.5165 53.4239 93.5344 53.7496 92.5581 56.7658C91.0104 61.3351 87.8602 71.1483 89.9654 70.6855C89.9789 70.6828 89.9924 70.6797 90.0059 70.6767C90.0194 70.6736 90.0329 70.6709 90.0464 70.6678C92.3133 70.1675 95.4504 60.0994 95.4507 60.1025C95.4489 60.1235 95.447 60.1449 95.4452 60.166C96.0304 58.1541 96.6153 56.1437 97.2005 54.1354C97.2683 53.8101 96.9775 53.4923 96.9079 53.3809C97.1107 53.0289 97.3137 52.6773 97.5164 52.3256C98.724 53.0857 101.363 51.6003 102.505 50.8442C102.528 51.1941 102.551 51.5442 102.573 51.894C102.573 51.8937 101.591 52.1889 100.615 55.1767C99.0669 59.7005 95.8761 69.4395 98.4673 68.9392C100.329 68.5814 102.55 61.825 102.55 61.8262C102.793 61.7844 103.384 61.8693 102.4 64.4749Z" fill="#01172F"/>
<path fill-rule="evenodd" clip-rule="evenodd" d="M114.383 62.7427C111.609 69.7348 108.958 73.5278 105.963 73.9985C102.359 74.5733 100.579 71.2369 101.156 65.9439C101.919 59.4396 105.9 50.2845 110.515 49.6685C111.082 49.5831 114.228 49.3279 113.633 54.3358C113.354 56.6157 112.17 59.6273 111.004 61.5296C110.023 60.8459 108.723 60.1569 109.587 58.0373C110.4 56.0501 112.1 52.1441 110.4 52.3685C108.457 52.6246 105.745 58.1063 105.249 62.4359C104.848 65.6899 105.667 67.7253 108.461 67.3138C110.283 67.0461 112.746 65.4176 114.533 60.1035C114.776 60.0766 115.561 59.8031 114.383 62.7427Z" fill="#01172F"/>
<path fill-rule="evenodd" clip-rule="evenodd" d="M123.006 56.9613C123.331 55.8615 123.656 54.7626 123.98 53.6649C124.071 52.1624 123.517 51.1249 122.667 51.1731C119.347 51.352 115.111 66.3383 118.107 66.0538C119.808 65.9002 121.916 60.2021 123.006 56.9613ZM130.172 61.8227C128.434 66.3795 125.922 71.9704 122.763 72.1481C121.103 72.2421 119.923 69.6527 120.61 65.4796C119.117 69.2076 117.338 72.5422 115.314 72.7565C109.08 73.519 115.049 48.9759 122.134 48.5196C123.672 48.4277 124.464 49.522 124.886 50.6899C125.072 50.0999 125.258 49.5098 125.445 48.9204C126.606 49.9323 129.088 48.8258 130.231 48.2729C130.254 48.6267 130.277 48.9805 130.3 49.3343C130.3 49.334 129.271 49.5193 128.254 52.345C126.787 56.6041 123.602 65.7842 126.193 65.6921C128.055 65.6289 130.322 59.1976 130.322 59.2003C130.646 59.2015 131.172 59.2034 130.172 61.8227Z" fill="#01172F"/>
<path fill-rule="evenodd" clip-rule="evenodd" d="M135.567 60.4509C135.781 58.0238 134.457 55.5321 134.613 52.8547C133.7 54.4426 132.675 56.4149 131.919 58.0901C133.29 58.1759 133.695 59.5684 133.482 61.0589C133.316 61.2625 133.149 61.4661 132.982 61.6704C132.928 61.3566 132.789 61.1035 132.505 61.0977C131.898 61.0849 131.249 62.0153 131.098 63.2632C130.954 64.4491 131.508 65.5116 132.479 65.5306C133.897 65.5571 135.298 63.497 135.567 60.4509ZM138.987 62.2879C138.608 66.5766 135.829 72.1197 131.254 72.0687C128.299 72.0467 126.8 69.3654 127.352 64.9121C127.664 62.2824 129.023 59.6945 130.452 58.6386C132.375 54.2613 135.268 49.5638 135.601 49.0257C136.283 47.7461 137.24 47.0504 138.171 47.1166C139.264 47.1933 140.142 48.3361 139.981 49.6948C139.843 49.87 139.705 50.0455 139.567 50.2213C138.974 49.5464 138.163 50.4243 137.958 52.2842C137.698 54.761 139.388 57.7583 138.987 62.2879Z" fill="#01172F"/>
<path fill-rule="evenodd" clip-rule="evenodd" d="M40.9856 53.0726L41.2746 53.0323L41.1976 53.5226L40.8124 56.2619L35.0311 57.0705L33.104 55.4221V45.8318L35.0311 43.6441L40.8124 42.8354L41.1976 45.467L41.2746 45.9356L40.9856 45.9759L40.0413 45.6285L36.7462 46.0894L36.1874 46.7237V53.6673L36.7462 54.1453L40.0413 53.6844L40.9856 53.0726Z" fill="#01172F"/>
<path fill-rule="evenodd" clip-rule="evenodd" d="M49.9466 50.4767L48.9252 45.2679L48.8483 45.2786L47.8269 50.7731L49.9466 50.4767ZM54.2823 54.09V54.3778L50.3321 54.9303V54.6425L50.698 54.2267L50.4284 52.9028L47.345 53.3342L47.0751 54.7334L47.4414 55.0469V55.3345L43.4909 55.887V55.5994L43.9534 55.0744L46.5356 43.6077L46.1887 43.3302V43.0423L51.1026 42.3552L53.8198 53.6944L54.2823 54.09Z" fill="#01172F"/>
<path fill-rule="evenodd" clip-rule="evenodd" d="M65.0161 43.5738L64.7268 43.6141L63.7828 43.267L60.3525 43.7465V46.4318L62.4339 46.1409L62.9154 45.5939L63.2046 45.5533V49.1977L62.9154 49.2383L62.4339 48.8262L60.3525 49.1171V52.7612L60.8343 53.1736V53.4611L56.7875 54.0274V53.7395L57.2694 53.1925V42.2597L56.7875 41.8476V41.56L64.5536 40.4736L64.9391 43.1049L65.0161 43.5738Z" fill="#01172F"/>
<path fill-rule="evenodd" clip-rule="evenodd" d="M70.4695 38.3993L71.838 38.2079L73.9574 35.073L71.3755 35.4341L70.4695 38.3993ZM75.6535 48.2238L75.9425 48.1835L75.8652 48.6737L75.4799 51.413L67.7136 52.4991V52.2113L68.1958 51.6643V40.7314L67.7136 40.3193V40.0318L75.4799 38.9457L75.8652 41.577L75.9425 42.0455L75.6535 42.0861L74.7092 41.7387L71.2792 42.2186V44.3282L73.3602 44.037L73.8421 43.4903L74.131 43.4497V47.0941L73.8421 47.1347L73.3602 46.7226L71.2792 47.0138V49.3154L74.7092 48.8355L75.6535 48.2238Z" fill="#01172F"/>
<path fill-rule="evenodd" clip-rule="evenodd" d="M13.8984 38.1283L14.0043 38.3935L16.0528 39.2626L16.4761 40.323L15.6142 42.3364L14.5527 42.7671L10.8414 41.193L10.4185 40.1325L11.4076 37.8206L12.5109 38.1124L12.7093 38.1612L12.6612 38.2732L12.3195 38.5599L11.7416 39.9097L11.8643 40.2171L14.5511 41.3569L14.8591 41.232L15.1526 40.5458L15.0299 40.2384L14.2358 39.9014L14.0411 40.3563L12.9062 40.1392L13.7871 38.0809L13.8984 38.1283Z" fill="#01172F"/>
<path fill-rule="evenodd" clip-rule="evenodd" d="M16.9058 28.9636L16.9705 29.2414L20.4719 31.3912L20.7308 32.5026L19.5757 34.365L18.4614 34.6333L14.96 32.4837L14.6815 32.5506L14.5784 32.4874L15.4768 31.0387L15.5795 31.1019L15.6443 31.3799L18.6721 33.2389L18.9954 33.1611L19.3889 32.5265L19.3138 32.2038L16.2862 30.3451L16.0074 30.412L15.9047 30.3488L16.8027 28.9004L16.9058 28.9636Z" fill="#01172F"/>
<path fill-rule="evenodd" clip-rule="evenodd" d="M24.1887 24.7423L22.1908 23.6257L22.1696 23.6501L23.6109 25.4236L24.1887 24.7423ZM26.7274 24.488L26.8197 24.5656L25.7425 25.8354L25.6499 25.7579L25.6327 25.5418L25.1214 25.2606L24.2807 26.2521L24.6448 26.7063L24.8616 26.6871L24.954 26.7649L23.8768 28.0347L23.7842 27.9569L23.7624 27.684L20.898 23.855L20.6986 23.8785L20.606 23.8009L21.9463 22.2209L26.4535 24.5122L26.7274 24.488Z" fill="#01172F"/>
<path fill-rule="evenodd" clip-rule="evenodd" d="M30.0712 16.0902L29.9801 16.1711L29.5479 16.2865L28.9526 16.8158L31.4799 19.629L31.7664 19.6434L31.8471 19.7331L30.5711 20.8677L30.4908 20.778L30.508 20.4935L27.9806 17.6803L27.3853 18.2099L27.2221 18.6241L27.131 18.7053L27.0209 18.5341L26.3897 17.5881L29.0382 15.2322L29.9123 15.962L30.0712 16.0902Z" fill="#01172F"/>
<path fill-rule="evenodd" clip-rule="evenodd" d="M38.5402 13.1299L38.642 13.0625L38.727 13.2475L39.2183 14.2725L36.4874 16.0857L36.4202 15.9855L36.4775 15.7062L33.9244 11.8989L33.6432 11.8445L33.576 11.7444L36.3073 9.93091L37.0698 10.7761L37.2087 10.9251L37.1069 10.9926L36.6631 11.046L35.4568 11.847L35.9494 12.5817L36.6815 12.0957L36.7389 11.8161L36.8404 11.7487L37.6915 13.0179L37.59 13.0854L37.3084 13.0307L36.5766 13.5167L37.114 14.3183L38.3203 13.5173L38.5402 13.1299Z" fill="#01172F"/>
<path fill-rule="evenodd" clip-rule="evenodd" d="M46.4451 5.0538L48.3578 9.21406L48.6271 9.31235L48.6774 9.42163L47.1214 10.1301L47.0711 10.0205L47.1723 9.75374L46.112 7.44727L45.8065 9.31632L45.3919 9.50496L43.7709 8.5129L44.8315 10.8194L45.1005 10.9174L45.1508 11.0269L43.5951 11.7351L43.5445 11.6255L43.6461 11.3587L41.7331 7.19849L41.4641 7.10051L41.4138 6.99092L42.6363 6.43445L44.8475 7.77572L45.2738 5.2339L46.496 4.67773L46.5463 4.78701L46.4451 5.0538Z" fill="#01172F"/>
<path fill-rule="evenodd" clip-rule="evenodd" d="M55.3221 5.32253L54.32 3.27186L54.2884 3.28041L54.4565 5.55422L55.3221 5.32253ZM57.5534 6.55422L57.5847 6.67021L55.972 7.10184L55.9404 6.98554L56.0502 6.79842L55.791 6.27766L54.5323 6.61435L54.5709 7.19402L54.7605 7.30147L54.7917 7.41777L53.179 7.84939L53.1478 7.73309L53.2861 7.49653L53.1263 2.72699L52.949 2.63297L52.9177 2.51667L54.9236 1.97974L57.3142 6.41869L57.5534 6.55422Z" fill="#01172F"/>
<path fill-rule="evenodd" clip-rule="evenodd" d="M65.4464 4.11448L65.4378 4.31778L65.4087 5.45331L62.3096 5.8187L62.2952 5.69934L62.474 5.4759L61.9324 0.930724L61.7063 0.75551L61.6922 0.635852L63.3914 0.435303L63.4058 0.554961L63.2273 0.778099L63.6736 4.52596L64.9523 4.37517L65.3249 4.12883L65.4464 4.11448Z" fill="#01172F"/>
<path fill-rule="evenodd" clip-rule="evenodd" d="M72.9281 3.37027L72.5527 1.12057L72.5202 1.11966L72.0325 3.34799L72.9281 3.37027ZM74.7162 5.18223L74.7132 5.3025L73.0437 5.26038L73.0468 5.14011L73.2054 4.99145L73.1057 4.4188L71.8028 4.38614L71.6746 4.95299L71.8255 5.10928L71.8224 5.22985L70.153 5.18773L70.156 5.06746L70.3563 4.87973L71.5638 0.260379L71.4209 0.120269L71.424 0L73.5004 0.0521978L74.5255 4.98474L74.7162 5.18223Z" fill="#01172F"/>
<path fill-rule="evenodd" clip-rule="evenodd" d="M84.2357 1.67084L83.422 6.17633L83.5867 6.40985L83.5656 6.52829L82.2424 6.29172L81.4063 3.35948L80.9766 5.73861L81.1413 5.97212L81.1198 6.09086L79.4764 5.7966L79.4979 5.67817L79.7341 5.51638L80.5478 1.01089L80.3831 0.777373L80.4042 0.658936L81.7271 0.89581L82.5644 3.8198L82.9929 1.44862L82.8282 1.2151L82.8497 1.09636L84.4931 1.39062L84.4719 1.50906L84.2357 1.67084Z" fill="#01172F"/>
<path fill-rule="evenodd" clip-rule="evenodd" d="M96.6512 7.26254L97.3993 7.6032L97.7116 7.48904L97.9698 6.92677L97.8526 6.61725L97.1039 6.27659L96.6512 7.26254ZM97.1546 8.89594L97.0371 8.58611L96.2151 8.21187L95.6949 9.34405L96.5172 9.71828L96.8294 9.60412L97.1546 8.89594ZM98.3704 9.36969L97.783 10.6478L96.7064 11.0409L93.8546 9.7424L93.9049 9.63312L94.1739 9.53483L96.2543 5.00674L96.1531 4.73965L96.2034 4.63037L98.9813 5.89472L99.3868 6.96248L98.7998 8.24057L98.0131 8.50949L98.3704 9.36969ZM104.702 12.2918L105.458 12.7854L105.784 12.7198L106.235 12.0354L106.166 11.7116L105.41 11.218L104.702 12.2918ZM105.282 15.888L105.216 15.9887L103.82 15.077L103.886 14.9762L104.088 14.8773L104.477 13.4893L104.082 13.2314L103.329 14.3724L103.389 14.6514L103.323 14.7522L101.893 13.8181L101.959 13.7174L102.24 13.6606L104.764 9.83519L104.704 9.5562L104.77 9.45546L107.392 11.1679L107.63 12.2839L106.568 13.8947L105.68 14.0736L105.243 15.6514L105.282 15.888ZM112.296 19.2647L113.477 17.3108L113.453 17.2888L111.628 18.6694L112.296 19.2647ZM112.475 21.797L112.395 21.8868L111.151 20.7772L111.232 20.6878L111.449 20.6768L111.747 20.1768L110.776 19.3108L110.309 19.6594L110.322 19.8758L110.241 19.9655L108.998 18.856L109.078 18.7662L109.354 18.7528L113.285 16.018L113.267 15.819L113.348 15.7293L114.895 17.1093L112.459 21.5238L112.475 21.797Z" fill="#01172F"/>
<path fill-rule="evenodd" clip-rule="evenodd" d="M122.005 25.2791L118.451 28.1808L118.425 28.465L118.331 28.5413L117.478 27.5068L118.752 24.7364L116.875 26.2687L116.848 26.5526L116.755 26.6292L115.696 25.3438L115.789 25.2675L116.075 25.2971L119.628 22.3951L119.655 22.1112L119.748 22.0349L120.6 23.0694L119.333 25.8347L121.203 24.3072L121.23 24.0233L121.324 23.947L122.383 25.2321L122.289 25.3087L122.005 25.2791Z" fill="#01172F"/>
<path fill-rule="evenodd" clip-rule="evenodd" d="M122.952 33.3598L123.413 34.1336L123.734 34.2173L125.9 32.9398L125.981 32.619L125.52 31.8449L122.952 33.3598ZM126.974 33.8137L123.989 35.5744L122.769 35.2576L121.213 32.6428L121.317 32.5814L121.594 32.6535L125.55 30.3198L125.62 30.0433L125.724 29.9819L127.281 32.5967L126.974 33.8137Z" fill="#01172F"/>
<path fill-rule="evenodd" clip-rule="evenodd" d="M27.5454 108.667L27.5436 108.998L27.2439 109.29L26.9111 109.285L25.03 107.373L25.0319 107.042L25.3318 106.75L25.6643 106.755L27.5454 108.667Z" fill="#01172F"/>
<path fill-rule="evenodd" clip-rule="evenodd" d="M36.1874 119.261L36.1214 119.362L34.6885 118.433L34.7544 118.332L35.0351 118.274L37.3692 114.71L36.994 114.466L37.3241 113.962L38.1464 113.968L39.0334 114.543L36.127 118.982L36.1874 119.261Z" fill="#01172F"/>
<path fill-rule="evenodd" clip-rule="evenodd" d="M44.8435 119.024L44.3886 118.806L44.0742 118.913L42.8054 121.532L42.9164 121.843L43.3712 122.062L43.6859 121.954L44.9548 119.335L44.8435 119.024ZM46.3709 119.4L44.618 123.017L43.5338 123.388L41.7723 122.543L41.3893 121.467L43.1418 117.851L44.2261 117.479L45.9875 118.324L46.3709 119.4ZM52.9039 122.166L52.4221 122.015L52.1267 122.167L51.2489 124.939L51.4041 125.231L51.8856 125.382L52.1813 125.231L53.0588 122.459L52.9039 122.166ZM54.4691 122.321L53.2569 126.149L52.2374 126.671L50.3729 126.087L49.8386 125.077L51.0508 121.248L52.0703 120.727L53.9348 121.311L54.4691 122.321ZM63.4828 123.632L63.6346 123.329L63.7555 123.347L63.738 123.466L63.4828 123.632ZM63.5635 127.246L63.419 127.054L63.0967 127.007L62.9025 127.149L62.7823 127.959L62.935 128.152L63.2411 128.197L63.4432 128.056L63.5635 127.246ZM64.3293 126.969L64.0959 128.542L63.4779 128.987L62.4786 128.84L62.0167 128.236L62.2501 126.664L62.8678 126.219L63.8671 126.366L64.3293 126.969ZM60.6877 123.822L60.5433 123.63L60.2209 123.582L60.0267 123.724L59.9065 124.535L60.059 124.727L60.3654 124.772L60.5675 124.632L60.6877 123.822ZM60.9417 128.322L61.0134 128.503L60.996 128.622L59.8274 128.451L62.5191 123.466L62.4483 123.277L62.466 123.158L63.6346 123.329L60.9417 128.322ZM59.9792 128.148L59.8274 128.451L59.7065 128.433L59.724 128.314L59.9792 128.148ZM60.6021 125.562L59.6029 125.415L59.1407 124.812L59.3744 123.239L59.9921 122.794L60.9914 122.941L61.4533 123.544L61.2199 125.117L60.6021 125.562ZM77.841 124.484L77.0957 124.563L76.8859 124.82L77.1975 127.71L77.4576 127.916L78.2026 127.837L78.4127 127.58L78.1011 124.69L77.841 124.484ZM79.3378 124.001L79.7684 127.992L79.0443 128.877L76.8571 129.111L75.9609 128.4L75.5302 124.408L76.2541 123.523L78.4416 123.289L79.3378 124.001ZM86.2938 124.657L87.1685 124.429L87.3375 124.143L87.1286 123.352L86.8403 123.186L85.9656 123.415L86.2938 124.657ZM89.3686 126.634L89.3993 126.751L87.7835 127.173L87.7528 127.056L87.8138 126.841L87.0379 125.625L86.5809 125.744L86.929 127.064L87.1774 127.207L87.2084 127.323L85.553 127.755L85.5221 127.639L85.6681 127.393L84.4998 122.968L84.2514 122.825L84.2207 122.708L87.255 121.916L88.2478 122.487L88.7401 124.35L88.2794 125.126L89.1655 126.505L89.3686 126.634Z" fill="#01172F"/>
<path fill-rule="evenodd" clip-rule="evenodd" d="M97.3585 120.478L97.2515 120.742L98.0686 122.63L97.6391 123.687L95.6185 124.553L94.5511 124.136L93.1148 120.818L93.5442 119.76L95.8639 118.767L96.4604 119.735L96.5702 119.906L96.458 119.955L96.0114 119.927L94.657 120.507L94.5324 120.814L95.5283 123.115L95.8378 123.235L96.5261 122.941L96.6509 122.634L96.373 121.992L95.9166 122.188L95.2452 121.252L97.3107 120.367L97.3585 120.478Z" fill="#01172F"/>
<path fill-rule="evenodd" clip-rule="evenodd" d="M104.636 117.797L103.082 116.121L103.054 116.138L103.875 118.268L104.636 117.797ZM107.13 118.334L107.193 118.436L105.775 119.314L105.712 119.211L105.762 119.001L105.363 118.577L104.256 119.261L104.462 119.805L104.674 119.854L104.738 119.956L103.32 120.834L103.256 120.731L103.32 120.465L101.78 115.943L101.584 115.904L101.52 115.802L103.284 114.71L106.861 118.273L107.13 118.334Z" fill="#01172F"/>
<path fill-rule="evenodd" clip-rule="evenodd" d="M111.435 108.909L114.423 112.387L114.709 112.408L114.787 112.499L113.766 113.368L110.956 112.157L112.534 113.994L112.82 114.014L112.898 114.106L111.63 115.186L111.551 115.094L111.575 114.81L108.587 111.332L108.301 111.311L108.222 111.22L109.244 110.351L112.048 111.556L110.475 109.726L110.189 109.705L110.111 109.613L111.38 108.533L111.459 108.624L111.435 108.909Z" fill="#01172F"/>
<path fill-rule="evenodd" clip-rule="evenodd" d="M116.15 104.1L119.57 107.159L119.856 107.142L119.946 107.223L118.803 108.489L118.713 108.409L118.699 108.124L115.279 105.065L114.993 105.082L114.903 105.001L116.046 103.735L116.136 103.815L116.15 104.1Z" fill="#01172F"/>
<path fill-rule="evenodd" clip-rule="evenodd" d="M124.332 99.3188L124.402 99.219L124.549 99.36L125.384 100.134L123.991 102.132L122.865 102.341L119.882 100.28L119.684 99.1564L121.076 97.1582L122.097 97.6658L122.281 97.7538L122.212 97.8536L121.819 98.0657L121.025 99.2046L121.082 99.5306L123.15 100.959L123.477 100.899L124.271 99.7599L124.332 99.3188Z" fill="#01172F"/>
<path fill-rule="evenodd" clip-rule="evenodd" d="M129.171 85.7619L129.475 85.6279L129.866 85.7799L129.997 86.0837L129.018 88.5751L128.715 88.7091L128.323 88.5571L128.192 88.2534L129.171 85.7619Z" fill="#01172F"/>
<path fill-rule="evenodd" clip-rule="evenodd" d="M52.8558 107.064H53.0091L52.9683 107.316L52.7638 108.727H48.6446V108.575L48.9001 108.323V102.077L48.6446 101.825V101.674H52.7638L52.9683 103.085L53.0091 103.336H52.8558L52.3549 103.085H50.5355V104.394H51.6394L51.8952 104.142H52.0482V106.057H51.8952L51.6394 105.805H50.5355V107.316H52.3549L52.8558 107.064Z" fill="#01172F"/>
<path fill-rule="evenodd" clip-rule="evenodd" d="M56.1367 103.941L58.7021 105.543V107.719L57.6801 108.727H54.7362L54.5317 107.316L54.4909 107.064H54.6442L55.1451 107.316H56.7704L57.0667 107.024V106.339L54.5013 104.737V102.682L55.5233 101.674H58.5898L58.7941 103.085L58.8352 103.336H58.6818L58.181 103.085H56.433L56.1367 103.377V103.941Z" fill="#01172F"/>
<path fill-rule="evenodd" clip-rule="evenodd" d="M65.1618 103.336H65.0084L64.5075 103.085H63.5058V108.323L63.7613 108.575V108.727H61.6149V108.575L61.8704 108.323V103.085H60.8687L60.3678 103.336H60.2145L60.2556 103.085L60.4598 101.674H64.9164L65.1207 103.085L65.1618 103.336Z" fill="#01172F"/>
<path fill-rule="evenodd" clip-rule="evenodd" d="M67.4612 107.316L67.7578 107.608V108.434L67.4612 108.727H66.6334L66.3368 108.434V107.608L66.6334 107.316H67.4612Z" fill="#01172F"/>
<path fill-rule="evenodd" clip-rule="evenodd" d="M76.0366 107.064L75.9958 107.316L75.7913 108.727H71.8255V106.147L74.3911 103.941V103.377L74.0948 103.085H72.3469L71.846 103.336H71.6927L71.7334 103.085L71.938 101.674H75.0045L76.0265 102.682V104.535L73.4609 106.742V107.316H75.3824L75.8836 107.064H76.0366Z" fill="#01172F"/>
<path fill-rule="evenodd" clip-rule="evenodd" d="M80.2374 103.085H79.6037L79.3071 103.377V107.024L79.6037 107.316H80.2374L80.534 107.024V103.377L80.2374 103.085ZM82.1694 102.682V107.719L81.1471 108.727H78.694L77.6717 107.719V102.682L78.694 101.674H81.1471L82.1694 102.682Z" fill="#01172F"/>
<path fill-rule="evenodd" clip-rule="evenodd" d="M85.9509 108.575V108.727H83.8045V108.575L84.06 108.323V102.984H83.4978V102.228L84.3667 101.674H85.6954V108.323L85.9509 108.575Z" fill="#01172F"/>
<path fill-rule="evenodd" clip-rule="evenodd" d="M89.4263 104.092L89.7225 104.384H89.9882L90.2847 104.092V103.377L89.9882 103.085H89.7225L89.4263 103.377V104.092ZM90.489 106.107L90.1927 105.815H89.5183L89.2217 106.107V107.024L89.5183 107.316H90.1927L90.489 107.024V106.107ZM92.1244 105.613V107.719L91.1025 108.727H88.6086L87.5863 107.719V105.613L88.2098 104.999L87.7909 104.586V102.682L88.8128 101.674H90.8982L91.9202 102.682V104.586L91.5012 104.999L92.1244 105.613Z" fill="#01172F"/>
</svg>
